<svg viewBox="0 0 48 48" xmlns="http://www.w3.org/2000/svg"><g data-name="Start Up"><path d="M47 40h-1V15a3 3 0 0 0-3-3h-9a1 1 0 0 0 0 2h9a1 1 0 0 1 1 1v25h-3a4 4 0 0 0-6-3.46 4.09 4.09 0 0 0-3.9-.06 4 4 0 0 0-2.24-1.39A3 3 0 0 0 27 33.17V32a1 1 0 0 0-2 0v2a1 1 0 0 0 1 1 1 1 0 0 1 1 1 1 1 0 0 0 1 1 2 2 0 0 1 1.87 1.3 1 1 0 0 0 1.68.34 2 2 0 0 1 2.78-.13 1 1 0 0 0 1.34 0A2 2 0 0 1 39 40H29c-.73 0-.84.44-1.62 2h-6.76l-.73-1.45c-.38-.76-.2-.55-10.89-.55a2 2 0 0 1 3.33-1.49 1 1 0 0 0 1.34 0 2 2 0 0 1 2.78.13 1 1 0 0 0 1.68-.34A2 2 0 0 1 20 37a1 1 0 0 0 1-1 1 1 0 0 1 1-1 1 1 0 0 0 1-1v-2a1 1 0 0 0-2 0v1.17a3 3 0 0 0-1.86 1.92 4 4 0 0 0-2.24 1.39 4.09 4.09 0 0 0-3.9.06A4 4 0 0 0 7 40H4V15a1 1 0 0 1 1-1h9a1 1 0 0 0 0-2H5a3 3 0 0 0-3 3v25H1a1 1 0 0 0-1 1v2a5 5 0 0 0 5 5h38a5 5 0 0 0 5-5v-2a1 1 0 0 0-1-1Zm-1 3a3 3 0 0 1-3 3H5a3 3 0 0 1-3-3v-1h16.38c.81 1.61.88 2 1.62 2 8.62 0 8.52.2 8.89-.55l.73-1.45H46Z" fill="#216bff" class="fill-000000"></path><path d="M13 22v7a1 1 0 0 0 1 1c.56 0 .42 0 4.41-4H19v3a1 1 0 0 0 1 1h8a1 1 0 0 0 1-1v-3c.82 0 0-.56 4.29 3.71a1 1 0 0 0 1.09.21c.83-.34.62-.39.62-7.92 0-2.92-2.07-4.05-4-5.5v-4.29a14.43 14.43 0 0 0-6.45-12 1 1 0 0 0-1.1 0 14.43 14.43 0 0 0-6.45 12v4.29c-2 1.5-4 2.62-4 5.5Zm4-3v5.59l-2 2c0-5.97-.39-5.8 2-7.59Zm10 9h-6v-2h6Zm6-1.41-2-2V19c2.3 1.73 2 1.4 2 7.59ZM24 2.22a12.88 12.88 0 0 1 2.19 2.11 4.16 4.16 0 0 1-4.38 0A12.88 12.88 0 0 1 24 2.22ZM20.68 6a6 6 0 0 0 6.64 0C29.52 9.82 29 12 29 24H19c0-12.06-.5-14.21 1.68-18Z" fill="#216bff" class="fill-000000"></path><path d="M24 15a3 3 0 1 0-3-3 3 3 0 0 0 3 3Zm0-4a1 1 0 0 1 0 2 1 1 0 0 1 0-2Z" fill="#216bff" class="fill-000000"></path></g></svg>